# xmcd
#
# Track frame offsets:
#	150
#	16561
#	31963
#	47111
#	64157
#	79892
#	95345
#	112572
#	130057
#	147664
#	159558
#	171797
#	185925
#	200704
#	218550
#	235095
#	247351
#	262715
#	275133
#
# Disc length: 3833 seconds
#
# Revision: 1
# Processed by: cddbd v1.5.2PL0 Copyright (c) Steve Scherf et al.
# Submitted via: audiograbber 1.83.01
#
DISCID=0f0ef713
DTITLE=Olon single top 100 - Volume 425
DYEAR=2009
DGENRE=Folk
TTITLE0=Hit - Wat nou
TTITLE1=Abby - Boys
TTITLE2=Miss Montreal - Addicted to crying
TTITLE3=Die Twa - Fugels
TTITLE4=Mooi Wark - Warkende helden
TTITLE5=Henk and Gier - Tuintje in me huis
TTITLE6=Henk Damen - Laat mij alleen
TTITLE7=Within Temptation - Utopia
TTITLE8=Timati feat. Snoop Dogg - Groove on
TTITLE9=One Two Trio - Sjoe sjoe wa
TTITLE10=Bouke - Wearin' that loved on hook
TTITLE11=Ferry de Lits - Oh luister toch
TTITLE12=Rob van Daal - Alleen voor jou
TTITLE13=Nick and Simon - Het masker
TTITLE14=3JS - Laatste dag (Live)
TTITLE15=Dakkeraf - Zo verliefd
TTITLE16=Grad Damen - He jij, waar was je nou
TTITLE17=Beatrice van der Poel - Stop
TTITLE18=Apollo Kids - Ik droom van Sinterklaas
EXTD=
EXTT0=
EXTT1=
EXTT2=
EXTT3=
EXTT4=
EXTT5=
EXTT6=
EXTT7=
EXTT8=
EXTT9=
EXTT10=
EXTT11=
EXTT12=
EXTT13=
EXTT14=
EXTT15=
EXTT16=
EXTT17=
EXTT18=
PLAYORDER=
